<svg width="16" height="17" viewBox="0 0 16 17" fill="none" xmlns="http://www.w3.org/2000/svg">
<path d="M14.1397 0H1.86032C0.837301 0 0 0.516314 0 1.14823V15.8513C0 16.4832 0.837301 17 1.86032 17H14.1397C15.1627 17 16 16.4842 16 15.8518V1.14823C16 0.516314 15.1627 0 14.1397 0ZM6.03581 0.827657H9.96419C10.0885 0.827657 10.1893 0.889829 10.1893 0.967057C10.1893 1.0438 10.0885 1.10597 9.96419 1.10597H6.03581C5.91147 1.10597 5.81074 1.0438 5.81074 0.967057C5.81074 0.889829 5.91147 0.827657 6.03581 0.827657ZM8 16.4259C7.48613 16.4259 7.06984 16.1689 7.06984 15.8513C7.06984 15.5336 7.48613 15.2772 8 15.2772C8.51387 15.2772 8.93016 15.5336 8.93016 15.8513C8.93016 16.1689 8.51387 16.4259 8 16.4259ZM14.7055 14.875H1.29451V1.82094H14.7055V14.875Z" fill="#005FA3"/>
</svg>
