<svg width="25" height="31" viewBox="0 0 25 31" fill="none" xmlns="http://www.w3.org/2000/svg">
<path d="M22.0933 0.0654907H2.90675C1.30828 0.0654907 0 0.976634 0 2.09178V28.0383C0 29.1535 1.30828 30.0655 2.90675 30.0655H22.0933C23.6917 30.0655 25 29.1552 25 28.0392V2.09178C25 0.976634 23.6917 0.0654907 22.0933 0.0654907ZM9.43095 1.52606H15.5691C15.7633 1.52606 15.9207 1.63578 15.9207 1.77206C15.9207 1.90749 15.7633 2.0172 15.5691 2.0172H9.43095C9.23667 2.0172 9.07928 1.90749 9.07928 1.77206C9.07928 1.63578 9.23667 1.52606 9.43095 1.52606ZM12.5 29.0523C11.6971 29.0523 11.0466 28.5989 11.0466 28.0383C11.0466 27.4778 11.6971 27.0252 12.5 27.0252C13.3029 27.0252 13.9534 27.4778 13.9534 28.0383C13.9534 28.5989 13.3029 29.0523 12.5 29.0523ZM22.9773 26.3155H2.02267V3.27892H22.9773V26.3155Z" fill="white"/>
</svg>
